<?xml version="1.0" encoding="UTF-8"?><svg xmlns="http://www.w3.org/2000/svg" width="584.3" height="552.37" viewBox="0 0 584.3 552.37"><g id="Layer_4"><rect x="40.55" y="14.67" width="512" height="512" rx="27.33" ry="27.33"/></g><g id="orig_copy"><path d="M515.09,150.63c7.81,0,11.71,3.47,11.71,10.41,0,3.19-1.02,6.66-3.04,10.41l-108.46,187.41c-3.19,5.79-8.03,10.7-14.53,14.75-6.51,4.05-12.51,6.07-18,6.07H91.24c-8.1,0-12.15-3.47-12.15-10.41,0-3.18,1.01-6.65,3.04-10.41l108.46-187.41c3.18-5.78,8.03-10.7,14.53-14.75,6.51-4.05,12.65-6.07,18.44-6.07h291.53ZM351.55,218.77c2.02-3.76,3.04-7.23,3.04-10.41,0-6.94-3.91-10.41-11.72-10.41-5.77,0-11.84,2.03-18.19,6.08s-11.26,8.98-14.72,14.77l-55.55,92.8c-2.07,3.76-3.1,7.22-3.1,10.39,0,6.94,3.9,10.4,11.71,10.4,5.78,0,11.93-2.02,18.44-6.07,6.51-4.05,11.35-8.96,14.54-14.75l55.55-92.8Z" fill="#24eaff"/></g><g id="orig"><path d="M509.02,139.16c7.81,0,11.71,3.47,11.71,10.41,0,3.19-1.02,6.66-3.04,10.41l-108.46,187.41c-3.19,5.79-8.03,10.7-14.53,14.75-6.51,4.05-12.51,6.07-18,6.07H85.17c-8.1,0-12.15-3.47-12.15-10.41,0-3.18,1.01-6.65,3.04-10.41l108.46-187.41c3.18-5.78,8.03-10.7,14.53-14.75,6.51-4.05,12.65-6.07,18.44-6.07h291.53ZM345.48,207.29c2.02-3.76,3.04-7.23,3.04-10.41,0-6.94-3.91-10.41-11.72-10.41-5.77,0-11.84,2.03-18.19,6.08s-11.26,8.98-14.72,14.77l-55.55,92.8c-2.07,3.76-3.1,7.22-3.1,10.39,0,6.94,3.9,10.4,11.71,10.4,5.78,0,11.93-2.02,18.44-6.07,6.51-4.05,11.35-8.96,14.54-14.75l55.55-92.8Z" fill="#fffa57"/></g></svg>